<svg width="12" height="14" viewBox="0 0 12 14" fill="none" xmlns="http://www.w3.org/2000/svg">
  <path
    d="M1.08789 0.75H10.9121C10.9564 0.75 10.9952 0.75835 11.0332 0.774414L11.0527 0.782227C11.1284 0.811634 11.1713 0.849058 11.2041 0.895508C11.2373 0.942652 11.25 0.982714 11.25 1.03613V12.9639C11.25 13.0173 11.2373 13.0573 11.2041 13.1045C11.1713 13.1509 11.1284 13.1884 11.0527 13.2178L11.0449 13.2207L11.0371 13.2246C11.0266 13.2289 10.9897 13.2412 10.9121 13.2412C10.7942 13.2411 10.7148 13.2082 10.6367 13.1377L6.5166 9.22754L6 8.7373L5.4834 9.22754L1.3623 13.1387C1.27039 13.2218 1.18881 13.2499 1.08789 13.25C1.04362 13.25 1.00478 13.2417 0.966797 13.2256L0.947266 13.2178L0.895508 13.1943C0.850162 13.1694 0.820438 13.1393 0.795898 13.1045C0.762673 13.0573 0.750033 13.0173 0.75 12.9639V1.03613C0.750033 0.982714 0.762673 0.942652 0.795898 0.895508C0.828673 0.849058 0.871634 0.811634 0.947266 0.782227L0.966797 0.774414C1.00477 0.75835 1.04362 0.75 1.08789 0.75Z"
    stroke="currentColor" stroke-width="1.5" />
</svg>